<?xml version="1.0" encoding="utf-8"?>
<!-- Generator: Circuit Diagram, cdlibrary.dll 1.0.0.0 -->
<!DOCTYPE svg PUBLIC "-//W3C//DTD SVG 1.1//EN" "http://www.w3.org/Graphics/SVG/1.1/DTD/svg11.dtd">
<svg version="1.1" width="320" height="280" xmlns="http://www.w3.org/2000/svg">
	<text x="170" y="190" style="font-family:Arial;font-size:11px;text-anchor:start" dy=".3em">&lt;- 10k resistor</text>
	<text x="170" y="90" style="font-family:Arial;font-size:11px;text-anchor:start" dy=".3em">&lt;- NTC 10k 3435 1%</text>
	<text x="270" y="140" style="font-family:Arial;font-size:11px;text-anchor:start" dy=".3em">Vout</text>
	<line x1="160" y1="140" x2="260" y2="140" style="stroke:rgb(0, 0, 0);stroke-linecap:square;stroke-width:2" />
	<line x1="60" y1="240" x2="160" y2="240" style="stroke:rgb(0, 0, 0);stroke-linecap:square;stroke-width:2" />
	<line x1="60" y1="240" x2="60" y2="248" style="stroke:rgb(0, 0, 0);stroke-linecap:square;stroke-width:2" />
	<path d="M 52,248 L 68,248 L 60,256 L 52,248" style="fill-opacity:0;fill:rgb(0, 0, 0);stroke:rgb(0, 0, 0);stroke-width:2" />
	<line x1="160" y1="140" x2="160" y2="170" style="stroke:rgb(0, 0, 0);stroke-linecap:square;stroke-width:2" />
	<rect x="152" y="170" width="16" height="40" style="fill-opacity:0;stroke:rgb(0, 0, 0);stroke-width:2" />
	<line x1="160" y1="210" x2="160" y2="240" style="stroke:rgb(0, 0, 0);stroke-linecap:square;stroke-width:2" />
	<text x="146" y="190" style="font-family:Arial;font-size:11px;text-anchor:end" dy=".3em">10 kΩ</text>
	<line x1="160" y1="40" x2="160" y2="70" style="stroke:rgb(0, 0, 0);stroke-linecap:square;stroke-width:2" />
	<rect x="152" y="70" width="16" height="40" style="fill-opacity:0;stroke:rgb(0, 0, 0);stroke-width:2" />
	<line x1="160" y1="110" x2="160" y2="140" style="stroke:rgb(0, 0, 0);stroke-linecap:square;stroke-width:2" />
	<text x="146" y="90" style="font-family:Arial;font-size:11px;text-anchor:end" dy=".3em">R1</text>
	<path d="M 160,90 M 143,70 L 143,80 L 178,112" style="fill-opacity:0;fill:rgb(0, 0, 0);stroke:rgb(0, 0, 0);stroke-width:2" />
	<text x="55" y="40" style="font-family:Arial;font-size:12px;text-anchor:end" dy=".3em">+5V</text>
	<line x1="60" y1="40" x2="160" y2="40" style="stroke:rgb(0, 0, 0);stroke-linecap:square;stroke-width:2" />
	<ellipse cx="160" cy="140" rx="2" ry="2" style="fill-opacity:1;fill:rgb(0, 0, 0);stroke:rgb(0, 0, 0);stroke-width:2" />
</svg>